<svg xmlns="http://www.w3.org/2000/svg" width="38" height="38" viewBox="0 0 38 38">
  <defs>
    <style>
      .cls-1 {
        fill: #fff;
        fill-rule: evenodd;
      }
    </style>
  </defs>
  <path id="lazer" class="cls-1" d="M29.322,14.075H26.463L21.6,18.129a2.875,2.875,0,1,1-1.278-1.723l4.236-4.236V9.31l3.812-2.859v3.811l3.812,0.953Zm-2.793,3A7.892,7.892,0,1,1,21.984,11.6l-1.238,2.476-0.121.121a4.979,4.979,0,1,0,3.2,4.644,5,5,0,0,0-.051-0.511ZM18.84,8.9a9.974,9.974,0,1,0,9.575,7.316l3.138-1.427a13.392,13.392,0,1,1-7.135-8.062L22.9,9.776A9.883,9.883,0,0,0,18.84,8.9Z"/>
</svg>
