<svg xmlns="http://www.w3.org/2000/svg" width="38" height="38" viewBox="0 0 38 38">
  <defs>
    <style>
      .cls-1 {
        fill: #fff;
        fill-rule: evenodd;
      }
    </style>
  </defs>
  <path id="shows" class="cls-1" d="M27.413,29.478H11.142a5,5,0,0,1-5-5V14.512a5,5,0,0,1,5-5h5.424l-1.9-2.132V5.248H16.8L18.933,7.38H20l3.2-3.2h2.132V6.314l-2.888,3.2h4.972a5,5,0,0,1,5,5v9.966A5,5,0,0,1,27.413,29.478ZM25.329,18.039l-6.4-4.264H16.8l-1.066,1.066v8.528L16.8,24.435h2.132l6.4-4.264V18.039Z"/>
</svg>
