<svg xmlns="http://www.w3.org/2000/svg" width="38" height="38" viewBox="0 0 38 38">
  <defs>
    <style>
      .cls-1 {
        fill: #fff;
        fill-rule: evenodd;
      }
    </style>
  </defs>
  <path id="Esportes" class="cls-1" d="M18.6,32.759A14.073,14.073,0,1,1,32.671,18.686,14.073,14.073,0,0,1,18.6,32.759ZM29.79,19.341L26.565,16.9l0.945-3.9,1.569,0.426A11.759,11.759,0,0,0,22.153,7.51L22.74,8.192,18.572,10.4,14.449,8.192l0.585-.678a11.762,11.762,0,0,0-6.77,5.634L9.3,12.875l1.025,4.091L6.909,19.459a11.668,11.668,0,0,0,1.9,5.649l3.106-.925,3.494,2.4-0.742,3.139A11.547,11.547,0,0,0,22.6,29.7l-0.663-2.8L25.4,23.665l3.13,0.938-0.56,1.106a11.659,11.659,0,0,0,2.352-7.023c0-.033,0-0.066,0-0.1ZM15.836,22.368l-2.2-5.518,4.957-4.01,5.013,4.01L21.36,22.368H15.836Z"/>
</svg>
