<svg xmlns="http://www.w3.org/2000/svg" width="38" height="38" viewBox="0 0 38 38">
  <defs>
    <style>
      .cls-1 {
        fill: #fff;
        fill-rule: evenodd;
      }
    </style>
  </defs>
  <path id="slots" class="cls-1" d="M7.661,23.513a4.8,4.8,0,0,1,2.314-4.629c2.367-1.573,3.471,0,3.471,0S9.986,19.063,7.661,23.513Zm4.628,8.1c-1.847-.462-6.046-1.709-6.943-5.785a8.317,8.317,0,0,1,2.314-8.1,8.975,8.975,0,0,1,6.671-2.318A7.24,7.24,0,0,1,22.36,7.785c-0.21-.5-0.814-1.628-0.814-1.628L23.861,5l5.785,8.1-1.157,2.314s-0.6-.56-1-1c-1.23.138-3.024,1.656-1.311,4.475,0,0,2.948-.651,4.628,1.157,2.082,2.241,2.311,6.472-1.157,8.1-2.8,1.313-5.956.6-6.943-1.157-0.777-1.386-1.579-5.042,1.157-6.943-0.325-.6-3.053-5.681,2.056-7.33-0.475-.712-1.34-2-1.88-2.82-6.642-.165-6.945,5.568-6.683,6.833,1.086,0.456,4.193,2.058,4.192,6.788C21.546,30.161,16.116,32.273,12.289,31.613Z"/>
</svg>
