<svg xmlns="http://www.w3.org/2000/svg" width="38" height="38" viewBox="0 0 38 38">
  <defs>
    <style>
      .cls-1 {
        fill: #fff;
        fill-rule: evenodd;
      }
    </style>
  </defs>
  <path id="形状_1" data-name="形状 1" class="cls-1" d="M-2-7"/>
  <path id="形状_2_拷贝_2" data-name="形状 2 拷贝 2" class="cls-1" d="M18.949,32.782a13.9,13.9,0,1,1,13.9-13.9A13.9,13.9,0,0,1,18.949,32.782ZM19.107,7.044A11.792,11.792,0,1,0,30.9,18.836,11.792,11.792,0,0,0,19.107,7.044Zm3.757,17.112a4.106,4.106,0,0,1-3.9-2.8,4.134,4.134,0,0,1-7.95-1.516,3.963,3.963,0,0,1,.5-1.892c-0.149-.053-0.238-0.087-0.238-0.087l7.725-7.854,7.468,7.854-0.127.051A3.985,3.985,0,0,1,26.99,20.1,4.094,4.094,0,0,1,22.863,24.156Zm0.249,1.1v1.7l-8.754.027v-1.52c1.714,0.087,4.377-2.117,4.377-2.117C20.217,24.888,23.112,25.256,23.112,25.256Z"/>
</svg>
