<svg xmlns="http://www.w3.org/2000/svg" width="38" height="38" viewBox="0 0 38 38">
  <defs>
    <style>
      .cls-1 {
        fill: #fff;
        fill-rule: evenodd;
      }
    </style>
  </defs>
  <path id="chazhao" class="cls-1" d="M26.952,23.126a9.733,9.733,0,0,0-1.7-11.94,10.552,10.552,0,0,0-14.574,0,9.743,9.743,0,0,0,0,14.1A10.567,10.567,0,0,0,24.02,26.308l0.147-.106L29.114,31.2a1.776,1.776,0,0,0,2.453,0L32.18,30.6a1.64,1.64,0,0,0,0-2.374ZM13.189,13.4a7.121,7.121,0,0,1,9.836,0,6.575,6.575,0,0,1,0,9.516,7.121,7.121,0,0,1-9.836,0A6.575,6.575,0,0,1,13.189,13.4Z"/>
</svg>
