<svg id="logo-2正式-合并的" xmlns="http://www.w3.org/2000/svg" width="720" height="340" viewBox="0 0 720 340">
  <defs>
    <style>
      .cls-1 {
        fill: #fff;
      }

      .cls-1, .cls-2, .cls-3 {
        fill-rule: evenodd;
      }

      .cls-3 {
        fill: #ffc15f;
      }
    </style>
  </defs>
  <path id="外白边" class="cls-1" d="M415,91c77.16-.337,84,35,84,35s54.016-10.945,68-14,14,7,14,7v9s77.543-19.981,85-22c11.7-2.243,13,7,13,7s-5.717,62.579-7,74-9,11-9,11H645s9.522,55.747,11,69-9,12-9,12-59.59.207-72,0-12-8-12-8v-5s-49.515,4.274-71,7-17-12-17-12c-18.162,14.847-67.488,28.257-87,32s-17-9-17-9l2-21c-13.407,11.486-19-2-19-2-3.261,5.355-7,6-7,6s-39.66,11.872-55,16-17-6-17-6-17.794-.026-29,0-18-14-18-14V242a13.662,13.662,0,0,1-9,0s-0.1,13.087,0,23c-4.817,19.852-18,14-18,14l-38-19s-82.39,24.948-94,28-12-9-12-9L70,109c2.7-8.648,13-7,13-7s44.492,3.422,54,4c9.373,0.307,11,4,11,4l11,11s0.382-.443,3-3a9.9,9.9,0,0,1,11-1l48,32,56-50L263,70s-3.646-11.794,9-12c11.943,2.911,34,7,34,7l19-33s6.06-7.985,14-1c4.516,5.83,22,30,22,30l25-10s11.379-.641,8,11c-3.425,11.8-7,28-7,28S394.232,90.667,415,91Z"/>
  <path id="外黑" class="cls-2" d="M663.256,190H635.942l12.628,81.314L571,271l-1-14-87.074,8L482.9,244.2C448.517,277.02,379,286,379,286l5-43-15.174,13.292L363,260l-3.436-6.585L350,234l-3,24-63,18-5-8-35.012.8L236,260.746,235,226s-8.807,8.163-12,9c-2.688.7-12-6-12-6l0.309,36.214L206,272l-42-21L65.513,280.492,78.819,110.3l62.9,4.287,11.344,12.426-0.381,11.3L168,123l53,38,67.3-59.49L272,67l40,8,20-38,25,35,28-11-9.571,38.359C500.748,92.717,492,136,492,136l81-17v19l97.628-25Z"/>
  <path id="_-T" data-name="-T" class="cls-3" d="M649.35,181.378h-26l7.428,74.213L582.492,259.3l7.428-74.213H567.634v-33.4l89.145-18.554Zm-127.423-.369H549.71V205.3H528.873v17.346l41.674-10.408,3.473,34.694-79.875,6.939V213.2c-17.475,34.148-105.3,53.043-105.3,53.043l11.064-108.526-2.031-8.256-14.5-32.3v-2.73c54.963-5.246,83.31,6.857,91.012,11.754,22.679,20.327-8.2,43.679-8.2,43.679v2.73a71.48,71.48,0,0,1,18.867,7.244c5,2.86,7.163,5.282,9.088,9.308V149.785l65.983-13.877v31.224l-38.2,3.469v10.408Zm-91.261-24.8v19.11s18.519-5.515,21.861-13.65C454.9,156.432,444.01,151.379,430.666,156.209Zm0,40.949v27.3s24.808-9.608,27.326-19.109C458.77,200.677,456.194,190.975,430.666,197.158Z"/>
  <path id="_-L" data-name="-L" class="cls-1" d="M392.023,217.56l-26.037,27.29-17.032-30.506-13.5,8.347,2.248,24.725L292.38,258.65l6.762-121.694c68.92-7,69.487-2.215,78.426.008,27.618,15.99-1.614,60.686-1.614,60.686Zm-36.957-53.627c-0.387-3.548-4.865-4.295-25.07-1.287l2.568,28.257S357.9,181.486,355.066,163.933ZM240.332,206.418c-8.7,9.763-15.17,14.872-19.114,15.544-7.747-.689-22.21-15.482-22.21-15.482l-1.456,46.41s-23.61-9.363-35.615-14.341L77.206,258.818,91.628,123.607l46.873,1.8L120.473,207.9l29.5-12.619,5.7,20.616c3.094-22.788,8.176-60.39,8.858-66.442,0.8-8.5,1.4-7.691,1.4-7.691s38.451,26.2,46.9,33.109c8.21,6.956,14.56-.16,14.56-0.16s40.564-36.63,45.735-42.988,5.567-2.5,6.7,0c6,66.419,12.53,120.572,12.53,120.572l-49.023,2.061Z"/>
  <path id="皇冠" class="cls-1" d="M292.6,81.245l27.988,8.884,12.884-28.1,13.548,26.542,23.322-12.549-11.716,41.089-46.368,2.833Z"/>
</svg>
