<svg xmlns="http://www.w3.org/2000/svg" width="38" height="38" viewBox="0 0 38 38">
  <defs>
    <style>
      .cls-1 {
        fill: #fff;
        fill-rule: evenodd;
      }
    </style>
  </defs>
  <path id="id" class="cls-1" d="M29.959,31.988H8.043A3.991,3.991,0,0,1,4,28.05V9.944A3.991,3.991,0,0,1,8.043,6.005H29.959A3.991,3.991,0,0,1,34,9.944V28.05A3.991,3.991,0,0,1,29.959,31.988Zm0.709-21.75a1,1,0,0,0-1.011-.985H8.345a1,1,0,0,0-1.011.985V27.756a1,1,0,0,0,1.011.985H29.657a1,1,0,0,0,1.011-.985V10.238ZM20.686,25.5c-1.84,0-5.019,0-5.019,0V12.5s3.486,0.014,4.6.014c4.572,0,7.054.461,7.054,6.23v0.06C27.322,25.035,24.589,25.5,20.686,25.5Zm-0.019-9.748H19v6.5h1.667s3.405-.156,3.418-3.423C24.073,15.8,20.667,15.749,20.667,15.749Zm-10-3.248H14V25.492H10.667V12.5Z"/>
</svg>
