<svg width="185" height="82" viewBox="0 0 185 82" fill="none" xmlns="http://www.w3.org/2000/svg">
<mask id="mask0_2169_923" style="mask-type:luminance" maskUnits="userSpaceOnUse" x="4" y="6" width="175" height="67">
<path d="M179 6H4V73H179V6Z" fill="white"/>
</mask>
<g mask="url(#mask0_2169_923)">
<path d="M30.0798 43.3523C35.2232 43.3523 40.3666 43.3598 45.51 43.3394C45.982 43.3372 46.0966 43.4575 46.0828 43.9247C46.0467 45.0867 46.0531 46.2509 46.0807 47.4129C46.0902 47.8113 45.9884 47.923 45.5864 47.9198C43.1298 47.8994 40.6731 47.9102 38.2165 47.9102C31.8533 47.9102 25.4901 47.9166 19.1279 47.8973C18.6039 47.8951 18.4734 48.0433 18.4978 48.5535C18.5413 49.4459 18.518 50.3427 18.5053 51.2362C18.501 51.5101 18.5795 51.64 18.8638 51.6067C18.9858 51.5928 19.1109 51.6046 19.235 51.6046C27.9488 51.6046 36.6626 51.6099 45.3764 51.5917C45.8876 51.5917 46.0191 51.713 46.0107 52.2328C45.9746 54.5043 46.0223 56.7778 45.9725 59.0493C45.825 65.7336 40.5352 71.8036 33.98 72.6574C30.7035 73.0837 27.3601 73.2749 24.1567 72.2235C18.6357 70.4107 15.3592 66.509 14.2369 60.7504C14.1107 60.1007 14.0768 59.4391 14.0269 58.7797C14.0004 58.4339 14.1245 58.3641 14.4417 58.3684C15.6615 58.3866 16.8813 58.3877 18.1001 58.3673C18.4321 58.3619 18.4999 58.4661 18.5148 58.7872C18.7216 63.3548 21.873 67.1254 26.2877 68.1102C26.9284 68.2531 27.5829 68.3186 28.2341 68.3132C29.9981 68.2971 31.7684 68.4399 33.525 68.1489C37.4358 67.5013 40.8195 64.0045 41.3997 60.033C41.5716 58.8559 41.4984 57.6767 41.5334 56.4986C41.5419 56.2076 41.4294 56.1367 41.1621 56.141C40.2605 56.1549 39.3589 56.1463 38.4584 56.1463C30.5051 56.1463 22.5508 56.141 14.5976 56.1592C14.1192 56.1592 14.0259 56.0304 14.029 55.5707C14.0481 51.6701 14.0471 47.7695 14.0301 43.8688C14.028 43.4479 14.1351 43.3426 14.5498 43.3437C19.7283 43.3587 24.9077 43.3533 30.0861 43.3533L30.0798 43.3523Z" fill="white"/>
<path d="M22.7418 29.8376C24.8802 28.5091 26.2443 26.5717 27.0547 24.2036C27.392 23.2166 27.4981 22.1878 27.5723 21.1525C27.5904 20.8936 27.5532 20.7572 27.2488 20.666C26.1202 20.3277 25.4647 19.3267 25.5973 18.2399C25.7299 17.1584 26.5593 16.354 27.6402 16.2541C28.7296 16.1543 29.6121 16.7986 29.9611 17.9456C29.9748 17.9897 30.0003 18.0305 30.0215 18.0766C30.1912 18.0133 30.1371 17.8597 30.1753 17.7534C30.5445 16.7342 31.4959 16.1296 32.5397 16.2617C33.5845 16.3938 34.3874 17.2465 34.4956 18.3408C34.5911 19.3031 33.9557 20.2965 32.9873 20.609C32.633 20.7229 32.4781 20.8485 32.5078 21.2556C32.7645 24.7975 34.2357 27.6521 37.1241 29.7194C37.1941 29.7699 37.2779 29.7989 37.3553 29.8386C37.403 29.9095 37.4486 29.9858 37.5526 29.9299C37.5165 29.873 37.4805 29.815 37.4444 29.7581C36.7952 28.6702 36.616 27.5275 37.0859 26.3246C37.7106 24.7234 39.2858 23.8481 41.019 24.123C42.5327 24.3625 43.8426 25.8145 43.9487 27.3696C44.0696 29.1255 43.1023 30.6183 41.5048 31.1392C41.3394 31.1929 41.1718 31.238 40.914 31.3143C41.5759 31.5602 42.1869 31.572 42.7851 31.5763C46.3884 31.6042 49.2735 30.1361 51.4671 27.2526C51.6124 27.0614 51.6707 26.8606 51.6845 26.6146C51.7566 25.3194 52.8322 24.428 54.1528 24.5472C55.3143 24.6525 56.1947 25.7812 56.0716 27.0088C55.9454 28.2653 54.8624 29.2039 53.6468 28.9838C53.0221 28.871 52.5225 29.0235 51.9889 29.2673C48.4133 30.8976 46.2547 33.6297 45.6872 37.5851C45.5705 38.397 45.526 39.2229 45.631 40.0466C45.6565 40.2464 45.7286 40.4762 45.3648 40.4751C42.731 40.4655 40.0983 40.4687 37.4646 40.4644C37.3999 40.4644 37.3341 40.4193 37.2694 40.3946L37.2683 40.4053C36.0379 38.5893 34.8075 36.7721 33.577 34.9561C33.5908 34.9357 33.5951 34.9131 33.5876 34.8884C34.1032 34.2838 34.6324 33.6899 35.1289 33.0702C35.3856 32.7491 35.743 32.501 35.8671 32.0778C35.8703 32.0607 35.8799 32.0403 35.8745 32.0263C35.8714 32.0177 35.8459 32.0134 35.83 32.0134C34.6897 32.022 33.5495 32.0317 32.4092 32.0413C32.3402 31.9415 32.2724 31.8416 32.2034 31.7406C32.2204 31.7041 32.2087 31.6783 32.1684 31.6633C32.1429 31.5806 32.1175 31.4979 32.092 31.4152C32.1111 31.3808 32.1005 31.3561 32.0623 31.34C32.0401 31.2595 32.0178 31.1779 31.9955 31.0973C31.9828 31.0683 31.9711 31.0393 31.9584 31.0103C31.8703 30.6838 31.7834 30.3574 31.6953 30.0309C31.6784 29.9933 31.6624 29.9557 31.6455 29.9181C31.6221 29.8107 31.5988 29.7033 31.5755 29.5959C31.5627 29.5626 31.55 29.5283 31.5373 29.495C31.5161 29.3865 31.4959 29.277 31.4747 29.1685C31.4609 29.1309 31.4482 29.0933 31.4344 29.0568C31.4174 28.9526 31.4004 28.8474 31.3824 28.7432C31.3612 28.6766 31.341 28.61 31.3198 28.5424C31.3039 28.4296 31.287 28.3168 31.271 28.2041C31.2519 28.1386 31.2329 28.0731 31.2138 28.0075C31.2127 27.8507 31.2244 27.6929 31.1395 27.55C31.1459 27.5382 31.1597 27.5221 31.1565 27.5146C31.1469 27.491 31.13 27.4706 31.1151 27.4491C31.0907 27.2687 31.0653 27.0893 31.0409 26.9089C31.0472 26.8949 31.0621 26.8777 31.0578 26.867C31.0472 26.8391 31.0292 26.8154 31.0143 26.7897C30.9963 26.5394 31.0239 26.2838 30.9242 26.0443C30.9316 26.0325 30.9475 26.0175 30.9443 26.0089C30.9359 25.9842 30.9199 25.9617 30.9062 25.938C30.8839 25.6545 30.8627 25.3699 30.8404 25.0864C30.8743 24.9704 30.8627 24.8598 30.8001 24.7556C30.8001 23.5173 30.8001 22.2801 30.799 21.0418C30.8563 20.9398 30.8743 20.8335 30.8351 20.7207C30.8871 20.5693 30.9104 20.4168 30.8457 20.2632L30.8404 20.216L30.7958 20.1999C30.5211 19.9034 30.3111 19.5652 30.1435 19.1979C30.1435 19.098 30.1626 18.9347 30.0724 18.9294C29.8964 18.9197 29.9717 19.0958 29.9515 19.2C29.7723 19.5576 29.5771 19.9056 29.3034 20.202L29.2599 20.217L29.2567 20.2622C29.1931 20.376 29.2154 20.4909 29.2514 20.6058C29.2217 20.7562 29.2366 20.9001 29.3024 21.0386L29.3002 24.7599C29.2408 24.8619 29.2239 24.9693 29.2631 25.0832C29.2408 25.3699 29.2175 25.6566 29.1952 25.9434L29.1549 26.1593C29.1326 26.3719 29.1093 26.5835 29.087 26.7961L29.0351 27.0249C29.0191 27.1677 29.0022 27.3105 28.9863 27.4534C28.9672 27.5253 28.9491 27.5973 28.93 27.6682C28.9109 27.8046 28.8929 27.941 28.8738 28.0774C28.86 28.1203 28.8452 28.1622 28.8314 28.2052C28.8144 28.319 28.7975 28.4318 28.7815 28.5456C28.7614 28.6111 28.7412 28.6766 28.7211 28.7421C28.7041 28.8485 28.6861 28.9548 28.668 29.0611C28.6553 29.0965 28.6436 29.132 28.6309 29.1674C28.6086 29.278 28.5874 29.3887 28.5652 29.4993C28.5535 29.5315 28.5418 29.5637 28.5302 29.5959L28.457 29.9224C28.4411 29.9589 28.4251 29.9954 28.4082 30.032C28.3201 30.3595 28.2321 30.6871 28.1441 31.0146C28.1037 31.0329 28.0921 31.0597 28.109 31.0973C28.0857 31.18 28.0624 31.2616 28.0401 31.3443L28.004 31.3733L28.0115 31.4152C27.986 31.499 27.9595 31.5828 27.934 31.6665C27.8948 31.6805 27.8852 31.7052 27.9022 31.7396C27.8333 31.8405 27.7643 31.9415 27.6954 32.0413C26.5424 32.0166 25.3883 31.9425 24.2364 32.0789C24.1929 32.2787 24.3711 32.3528 24.4644 32.4655C25.0531 33.1797 25.6365 33.8982 26.2549 34.5855C26.4936 34.8519 26.4798 35.0237 26.2846 35.304C25.2494 36.7947 24.2332 38.3004 23.2213 39.8071C23.1385 39.9306 22.9222 40.0251 23.0516 40.2421L23.0547 40.2399C22.9147 40.1766 22.9243 40.2625 22.9412 40.3549L22.9508 40.3441C22.8468 40.3151 22.8458 40.3871 22.8426 40.4569C20.2916 40.4655 17.7395 40.473 15.1885 40.4826C14.9424 40.4826 14.6974 40.4988 14.4513 40.5074C14.4184 40.4955 14.3855 40.4826 14.3516 40.4708C14.533 38.2338 14.2158 36.088 13.1795 34.0819C11.8886 31.586 9.83292 29.9836 7.29993 28.9365C7.08673 28.8485 6.92656 28.9333 6.74306 28.972C5.53702 29.2233 4.36069 28.5349 4.0796 27.4169C3.77518 26.2054 4.40312 25.0198 5.55506 24.6332C6.8958 24.1832 8.33837 25.1476 8.41475 26.5727C8.43278 26.9035 8.5484 27.1494 8.73826 27.39C11.3741 30.729 14.7971 32.0177 18.9689 31.4388C18.8723 31.1682 18.6337 31.223 18.4724 31.1596C16.9005 30.5421 15.9723 28.9483 16.229 27.2697C16.49 25.5632 17.8 24.3131 19.4228 24.2186C21.2006 24.1155 22.6559 25.1594 23.1014 26.8756C23.3666 27.8959 23.181 28.857 22.6686 29.7624C22.6464 29.8118 22.6241 29.8612 22.6008 29.9106C22.6718 29.9353 22.7196 29.9127 22.745 29.8408L22.7418 29.8376Z" fill="white"/>
<path d="M119.345 33.2591C121.325 33.2591 123.304 33.2667 125.282 33.2516C125.618 33.2495 125.714 33.33 125.729 33.6877C125.972 39.6696 121.844 43.5573 116.815 44.337C113.747 44.8128 110.764 44.6313 107.95 43.1492C105.221 41.7123 103.308 39.5923 102.702 36.4757C101.851 32.1003 103.569 28.3415 107.367 26.0529C112.246 23.1124 119.975 23.4088 124.326 29.0202C124.58 29.3467 124.594 29.4627 124.199 29.6528C123.243 30.1124 122.3 30.6032 121.38 31.1306C120.996 31.3507 120.79 31.3067 120.504 30.9748C117.58 27.5801 112.259 27.4748 109.098 29.7183C105.809 32.0531 105.837 36.974 109.187 39.2164C110.643 40.1916 112.249 40.6362 113.995 40.5954C115.201 40.5664 116.39 40.474 117.527 40.0186C118.698 39.5493 119.633 38.7954 120.302 37.7118C120.391 37.5668 120.581 37.4154 120.48 37.2435C120.4 37.1071 120.185 37.1823 120.032 37.1823C117.858 37.1791 115.685 37.1662 113.511 37.1909C113.056 37.1963 112.897 37.0986 112.919 36.6078C112.962 35.6799 112.965 34.7466 112.919 33.8187C112.894 33.315 113.074 33.242 113.515 33.2473C115.458 33.271 117.402 33.257 119.345 33.257V33.2591Z" fill="white"/>
<path d="M87.3372 34.4438C87.3372 37.467 87.3277 40.4901 87.3479 43.5133C87.351 43.944 87.2269 44.0492 86.8186 44.0385C85.795 44.0095 84.7682 44.0117 83.7446 44.0385C83.3734 44.0482 83.2726 43.9408 83.2747 43.5649C83.2917 41.257 83.2652 38.9501 83.297 36.6422C83.3044 36.1234 83.1347 36.044 82.6786 36.0461C78.8971 36.0633 75.1157 36.0654 71.3342 36.044C70.8431 36.0407 70.6787 36.132 70.6861 36.6722C70.7201 38.9436 70.6861 41.2161 70.7116 43.4876C70.7169 43.9451 70.5843 44.0535 70.1515 44.0407C69.1099 44.0084 68.0662 44.0203 67.0245 44.0364C66.7307 44.0407 66.6321 43.9633 66.6331 43.6519C66.6416 37.5164 66.6427 31.3808 66.6321 25.2453C66.6321 24.8995 66.7466 24.8308 67.0564 24.8361C68.116 24.8533 69.1767 24.8587 70.2364 24.834C70.6087 24.8254 70.7127 24.9381 70.7095 25.313C70.6925 27.4061 70.7148 29.4993 70.6904 31.5913C70.6851 32.0445 70.8187 32.1541 71.2536 32.153C75.0881 32.1369 78.9226 32.138 82.7571 32.1519C83.157 32.153 83.3002 32.0692 83.2949 31.6268C83.2694 29.5347 83.2927 27.4415 83.2758 25.3484C83.2726 24.9661 83.3437 24.8189 83.7605 24.8318C84.8021 24.8651 85.8459 24.8608 86.8875 24.8329C87.2778 24.8222 87.3468 24.965 87.3447 25.3226C87.3319 28.363 87.3372 31.4045 87.3372 34.4459V34.4438Z" fill="white"/>
<path d="M151.512 34.3891C151.512 37.4306 151.502 40.4731 151.522 43.5145C151.525 43.9495 151.394 44.0494 150.989 44.0376C149.964 44.0096 148.938 44.0118 147.914 44.0376C147.542 44.0472 147.442 43.9409 147.445 43.5639C147.462 41.256 147.443 38.947 147.463 36.6391C147.467 36.1966 147.4 36.0366 146.903 36.0398C143.067 36.0656 139.232 36.0613 135.396 36.0441C134.975 36.0419 134.869 36.159 134.873 36.5768C134.893 38.8847 134.873 41.1937 134.892 43.5017C134.895 43.9194 134.79 44.0515 134.368 44.0386C133.344 44.0075 132.318 44.015 131.293 44.0365C130.94 44.044 130.809 43.9667 130.81 43.5736C130.822 37.4896 130.821 31.4067 130.812 25.3227C130.812 24.963 130.885 24.8223 131.272 24.832C132.332 24.8577 133.393 24.8556 134.453 24.833C134.815 24.8255 134.892 24.9608 134.89 25.297C134.877 27.4084 134.893 29.5198 134.875 31.6312C134.872 32.02 134.959 32.1531 135.37 32.1521C139.24 32.1359 143.112 32.1349 146.982 32.1521C147.407 32.1542 147.466 32.0049 147.463 31.629C147.446 29.5531 147.466 27.4782 147.445 25.4022C147.441 24.978 147.514 24.8105 147.98 24.8287C149.004 24.8685 150.031 24.8588 151.055 24.832C151.438 24.8223 151.522 24.9522 151.52 25.3174C151.506 28.3416 151.513 31.3648 151.513 34.3891H151.512Z" fill="white"/>
<path d="M169.869 24.776C171.938 24.776 174.005 24.7867 176.074 24.7663C176.454 24.7631 176.547 24.8758 176.534 25.2453C176.506 26.0497 176.504 26.8562 176.534 27.6606C176.549 28.044 176.43 28.1321 176.063 28.1299C173.306 28.1138 170.548 28.1342 167.791 28.1084C167.314 28.1042 167.194 28.2384 167.211 28.7056C167.247 29.67 167.236 30.6376 167.215 31.6031C167.208 31.9564 167.319 32.0552 167.667 32.0595C169.185 32.0767 170.707 31.9511 172.22 32.1788C173.933 32.4376 175.517 32.9982 176.731 34.3181C178.931 36.7066 178.479 40.5803 175.789 42.5027C174.403 43.494 172.822 43.9429 171.161 43.9891C168.618 44.06 166.072 44.0149 163.526 44.0363C163.187 44.0396 163.111 43.9225 163.118 43.6057C163.138 42.8367 163.15 42.0656 163.115 41.2977C163.095 40.8596 163.207 40.7221 163.66 40.7285C165.568 40.7554 167.477 40.7457 169.387 40.7371C170.164 40.7339 170.942 40.691 171.689 40.4386C173.1 39.9607 173.807 38.9178 173.654 37.5271C173.56 36.6679 173.081 36.088 172.333 35.7164C171.521 35.3126 170.643 35.2213 169.757 35.217C167.707 35.2062 165.656 35.2009 163.606 35.2245C163.197 35.2288 163.114 35.1042 163.116 34.7133C163.132 31.5644 163.133 28.4156 163.115 25.2657C163.113 24.8608 163.219 24.762 163.612 24.7652C165.698 24.7856 167.783 24.7749 169.869 24.7749V24.776Z" fill="white"/>
<path d="M116.135 50.5361C119.17 50.4587 121.853 51.2449 124.311 52.8569C124.69 53.106 124.722 53.2543 124.402 53.585C123.883 54.1209 123.403 54.6977 122.935 55.2797C122.726 55.5396 122.559 55.5525 122.277 55.3979C120.118 54.2133 117.805 53.6903 115.351 53.7655C114.53 53.7902 113.74 53.948 112.972 54.223C112.744 54.3046 112.521 54.4388 112.335 54.5978C111.847 55.0134 111.89 55.6352 112.416 55.9982C112.805 56.2667 113.261 56.3516 113.71 56.4407C115.24 56.7435 116.802 56.7221 118.347 56.8692C119.88 57.0142 121.375 57.2354 122.817 57.8637C126.362 59.4091 125.843 63.9369 123.57 65.5994C122.285 66.5402 120.828 66.987 119.29 67.1631C116.505 67.481 113.755 67.3102 111.093 66.334C110.006 65.9356 109.023 65.3513 108.107 64.6329C107.802 64.3934 107.821 64.2484 108.037 63.9713C108.508 63.3688 108.955 62.7459 109.388 62.1144C109.571 61.8481 109.701 61.7729 110.008 61.9748C112.491 63.6147 115.233 64.2494 118.173 64.0647C119.061 64.0089 119.912 63.7748 120.724 63.4107C120.899 63.3323 121.063 63.2142 121.21 63.0896C122.1 62.34 121.952 61.1833 120.886 60.7269C119.996 60.3456 119.027 60.3295 118.084 60.2221C116.105 59.9976 114.096 60.0492 112.142 59.5777C111.902 59.5197 111.665 59.4521 111.427 59.3855C109.761 58.9162 108.67 57.9142 108.471 56.096C108.28 54.3518 109.127 52.6582 110.638 51.8162C112.382 50.8443 114.255 50.4254 116.135 50.5371V50.5361Z" fill="white"/>
<path d="M141.445 55.6125C141.344 55.8069 141.394 56.0034 141.394 56.1903C141.39 59.5883 141.38 62.9863 141.405 66.3843C141.408 66.8773 141.267 66.9847 140.814 66.9632C140.021 66.9256 139.224 66.9406 138.43 66.9589C138.126 66.9653 137.995 66.9095 137.995 66.5551C138.007 61.4752 138.005 56.3965 137.996 51.3167C137.996 50.9913 138.082 50.8839 138.411 50.8914C139.346 50.9118 140.284 50.9139 141.219 50.8903C141.556 50.8817 141.77 50.9998 141.988 51.2458C145.129 54.7845 148.279 58.3146 151.426 61.8468C151.555 61.9918 151.687 62.1336 151.909 62.3795C151.909 62.0874 151.909 61.9038 151.909 61.7212C151.909 58.2877 151.917 54.8532 151.9 51.4198C151.898 50.9956 152.008 50.8721 152.426 50.8892C153.237 50.9225 154.051 50.9118 154.863 50.8925C155.189 50.8849 155.322 50.9515 155.321 51.3274C155.308 56.389 155.308 61.4505 155.321 66.5121C155.321 66.8654 155.226 66.9696 154.878 66.961C153.943 66.9385 153.005 66.9363 152.069 66.961C151.732 66.9707 151.522 66.8493 151.305 66.6034C148.165 63.0647 145.016 59.5335 141.865 56.0034C141.742 55.8649 141.65 55.6845 141.446 55.6114L141.445 55.6125Z" fill="white"/>
<path d="M178.996 59.597C179.084 61.7718 177.519 65.2536 173.102 66.7335C169.777 67.8483 166.56 67.568 163.509 65.8056C158.623 62.9843 158.17 56.1067 162.621 52.6142C166.281 49.7435 171.895 49.6339 175.647 52.3843C177.836 53.9899 178.966 56.1678 178.996 59.597ZM169.295 64.0658C170.887 64.1463 172.316 63.7189 173.603 62.8071C176.087 61.0437 176.189 57.1677 173.833 55.2335C171.453 53.28 167.342 53.2328 164.92 55.0853C162.307 57.085 162.456 61.2327 165.232 62.9918C166.48 63.7822 167.84 64.1485 169.295 64.0658Z" fill="white"/>
<path d="M84.6441 63.1271C82.5185 66.0805 79.5888 67.2715 76.1149 67.3682C73.7389 67.4347 71.5295 66.93 69.5321 65.5854C64.9848 62.5225 64.7982 55.8059 69.1768 52.5035C71.4531 50.7862 74.0391 50.2288 76.8288 50.4683C79.3936 50.6896 81.6656 51.5724 83.4943 53.4668C83.9027 53.89 84.2591 54.3561 84.6123 54.8265C84.7534 55.0155 84.7682 55.1035 84.5073 55.1948C83.6418 55.4988 82.7794 55.8145 81.9308 56.1635C81.6434 56.2817 81.5426 56.1098 81.4111 55.9552C79.2769 53.4518 74.3679 53.0877 71.8604 54.7373C70.2364 55.8059 69.4038 57.2805 69.5194 59.234C69.6265 61.0318 70.5196 62.3506 72.0959 63.2044C74.6893 64.6102 79.0627 64.5039 81.4684 61.7395C81.6688 61.5097 81.812 61.4657 82.0814 61.63C82.9258 62.1444 83.7871 62.6288 84.6441 63.126V63.1271Z" fill="white"/>
<path d="M106.052 66.9537C104.884 66.9537 103.772 66.9451 102.66 66.9601C102.401 66.9634 102.286 66.8452 102.184 66.6337C101.752 65.7358 101.298 64.8487 100.875 63.9466C100.743 63.6642 100.578 63.5675 100.269 63.5686C97.5297 63.5815 94.791 63.5815 92.0522 63.5686C91.7393 63.5675 91.5812 63.6738 91.4497 63.9541C91.035 64.8423 90.5905 65.7165 90.1588 66.5961C90.0644 66.7883 89.988 66.9634 89.707 66.9591C88.5794 66.9419 87.4519 66.9526 86.3243 66.9526C86.2872 66.7292 86.4187 66.5886 86.4962 66.4361C89.0419 61.3992 91.594 56.3645 94.1354 51.3255C94.2882 51.0226 94.4473 50.8744 94.8132 50.8884C95.7308 50.9216 96.6504 50.9088 97.569 50.8937C97.849 50.8894 98.0134 50.9668 98.1481 51.232C100.745 56.3838 103.352 61.5313 105.956 66.6798C105.987 66.7411 106.003 66.8109 106.053 66.9526L106.052 66.9537ZM96.1826 54.6859C95.2153 56.5868 94.285 58.4157 93.3293 60.293H99.0009C98.059 58.42 97.1383 56.5868 96.1826 54.6859Z" fill="white"/>
<path d="M93.3302 34.4427C93.3302 31.4206 93.3376 28.3974 93.3217 25.3753C93.3196 24.9693 93.4033 24.8158 93.8393 24.8297C94.8979 24.863 95.9597 24.8512 97.0193 24.834C97.3227 24.8286 97.4044 24.9264 97.4033 25.2282C97.3959 31.3626 97.3948 37.4971 97.4054 43.6315C97.4054 43.9827 97.2834 44.0396 96.979 44.0353C95.9374 44.0192 94.8937 44.0096 93.852 44.0386C93.4426 44.0493 93.3174 43.9419 93.3206 43.5112C93.3397 40.4891 93.3312 37.4659 93.3312 34.4438L93.3302 34.4427Z" fill="white"/>
<path d="M129.624 58.9193C129.624 56.417 129.635 53.9157 129.613 51.4134C129.609 50.9763 129.744 50.8743 130.148 50.8893C130.959 50.9194 131.772 50.9087 132.583 50.8926C132.881 50.8872 133.021 50.9355 133.021 51.2942C133.01 56.3869 133.011 61.4807 133.019 66.5734C133.019 66.8892 132.911 66.9643 132.621 66.959C131.774 66.9429 130.926 66.9332 130.08 66.9622C129.699 66.9751 129.613 66.8441 129.615 66.4789C129.63 63.9594 129.624 61.4399 129.624 58.9193Z" fill="white"/>
<path d="M37.2683 40.4044C37.2683 40.4044 37.2683 40.3936 37.2694 40.3936C37.0488 40.4634 36.8239 40.4688 36.5937 40.4688C32.7295 40.4688 28.8653 40.471 25.0001 40.4752C24.8421 40.4752 24.684 40.4924 24.526 40.5021C24.4952 40.4806 24.4655 40.4817 24.4358 40.5053C23.9362 40.4881 23.4377 40.472 22.9381 40.4548C22.9413 40.4173 22.9434 40.3797 22.9466 40.3421L22.937 40.3528C23.0102 40.3496 23.112 40.3764 23.0505 40.2379C23.0505 40.2379 23.0473 40.24 23.0473 40.2411C23.2658 40.3807 23.4005 40.1702 23.548 40.094C25.5846 39.0415 27.6179 37.9826 29.6418 36.9043C29.942 36.7443 30.1658 36.7508 30.4628 36.9076C32.5503 38.0137 34.6473 39.1038 36.7454 40.1917C36.9109 40.2776 37.0583 40.4227 37.2683 40.4044Z" fill="white"/>
<path d="M31.8184 13.8432C31.7897 14.5606 31.4927 15.119 30.8489 15.4444C30.2071 15.7688 29.5739 15.7054 29.0043 15.2758C28.4124 14.8301 28.1695 14.2029 28.3413 13.4791C28.8897 11.1733 29.2164 8.82564 29.6991 6.50803C29.7468 6.28143 29.7319 6.00542 30.047 6.00005C30.3652 5.99575 30.3588 6.27283 30.4034 6.49944C30.8605 8.82349 31.322 11.1465 31.7791 13.4694C31.8035 13.5919 31.8056 13.7175 31.8173 13.8421L31.8184 13.8432Z" fill="white"/>
<path d="M26.1585 15.672C25.749 15.6838 25.4351 15.4851 25.2197 15.1608C24.3754 13.8849 23.547 12.5973 22.7101 11.316C22.6295 11.1925 22.5372 11.0615 22.6729 10.9369C22.8077 10.8134 22.936 10.9251 23.0527 11.0046C24.3266 11.8713 25.6037 12.7326 26.8691 13.61C27.2733 13.8903 27.4133 14.438 27.2531 14.9052C27.0919 15.3767 26.6591 15.6795 26.1574 15.672H26.1585Z" fill="white"/>
<path d="M33.908 15.6721C33.4137 15.6667 32.982 15.3445 32.8356 14.8709C32.6871 14.3887 32.877 13.8442 33.3055 13.5521C34.519 12.724 35.7324 11.8971 36.9501 11.0744C37.088 10.981 37.2429 10.7834 37.4137 10.9327C37.6226 11.1153 37.4094 11.2871 37.3118 11.4385C36.5407 12.6349 35.7643 13.827 34.9878 15.0202C34.7322 15.4122 34.4119 15.6968 33.9091 15.6731L33.908 15.6721Z" fill="white"/>
<path d="M22.9486 40.342C22.9453 40.3796 22.9432 40.4172 22.94 40.4548H22.8897H22.8394C22.8415 40.385 22.8426 40.313 22.9486 40.342Z" fill="#FBFBFC"/>
<path d="M14.3494 40.4688C14.3826 40.4806 14.4157 40.4934 14.45 40.5052C14.4168 40.4934 14.3836 40.4806 14.3494 40.4688Z" fill="#FBFBFC"/>
<path d="M24.4368 40.5064C24.4667 40.4827 24.4967 40.4817 24.5278 40.5031C24.4978 40.5031 24.4667 40.5053 24.4368 40.5064Z" fill="#FBFBFC"/>
<path d="M35.8661 32.0767C34.7131 32.0606 33.5601 32.1304 32.4082 32.0392C33.5485 32.0295 34.6887 32.0198 35.829 32.0112C35.8449 32.0112 35.8704 32.0155 35.8736 32.0241C35.8789 32.0381 35.8693 32.0595 35.8661 32.0767Z" fill="#FBFBFC"/>
<path d="M27.6931 32.0391C26.5412 32.1315 25.3871 32.0617 24.2341 32.0767C25.3861 31.9414 26.5391 32.0155 27.6931 32.0391Z" fill="#FBFBFC"/>
<path d="M30.1435 19.1968C30.0788 19.1968 30.0151 19.1979 29.9504 19.199C29.9706 19.0959 29.8953 18.9187 30.0714 18.9284C30.1615 18.9337 30.1435 19.097 30.1424 19.1968H30.1435Z" fill="#FBFBFC"/>
<path d="M29.2504 20.6047C29.3424 20.7401 29.3001 20.8915 29.3012 21.0375C29.2345 20.899 29.2208 20.7551 29.2504 20.6047Z" fill="#FBFBFC"/>
<path d="M30.8402 25.0854C30.8265 24.9748 30.8138 24.8653 30.8 24.7546C30.8625 24.8588 30.8752 24.9684 30.8402 25.0854Z" fill="#FBFBFC"/>
<path d="M30.7991 21.0418C30.8107 20.9344 30.8234 20.827 30.835 20.7207C30.8742 20.8335 30.8562 20.9398 30.7991 21.0418Z" fill="#FBFBFC"/>
<path d="M29.2989 24.7588C29.2862 24.8662 29.2746 24.9736 29.2619 25.0821C29.2238 24.9682 29.2396 24.8608 29.2989 24.7588Z" fill="#FBFBFC"/>
<path d="M37.4443 29.7593C37.4804 29.8162 37.5165 29.8742 37.5525 29.9311C37.4475 29.987 37.403 29.9107 37.3552 29.8398C37.3849 29.813 37.4146 29.7861 37.4443 29.7593Z" fill="#FDFDFE"/>
<path d="M28.984 27.4524C28.965 27.5243 28.947 27.5963 28.928 27.6672C28.947 27.5952 28.965 27.5233 28.984 27.4524Z" fill="#FBFBFC"/>
<path d="M31.3822 28.7421C31.3611 28.6755 31.341 28.6089 31.3198 28.5413C31.341 28.6078 31.3611 28.6744 31.3822 28.7421Z" fill="#FBFBFC"/>
<path d="M22.743 29.8377C22.7184 29.9096 22.6691 29.9322 22.5974 29.9075C22.6199 29.8581 22.6424 29.8087 22.6659 29.7593C22.6916 29.7851 22.7173 29.8119 22.743 29.8377Z" fill="#FDFDFE"/>
<path d="M28.0367 31.3423C28.0314 31.3681 28.0219 31.3917 28.0081 31.4132L28.0007 31.3713L28.0367 31.3423Z" fill="#FBFBFC"/>
<path d="M32.0919 31.4153C32.0771 31.3927 32.0665 31.3669 32.0623 31.3401C32.1003 31.3562 32.1109 31.3809 32.0919 31.4153Z" fill="#FBFBFC"/>
<path d="M27.9306 31.6643C27.9253 31.6912 27.9147 31.7148 27.8989 31.7373C27.8809 31.703 27.8915 31.6793 27.9306 31.6643Z" fill="#FBFBFC"/>
<path d="M32.2021 31.7397C32.1842 31.7171 32.1725 31.6914 32.1672 31.6624C32.2074 31.6774 32.2191 31.7032 32.2021 31.7397Z" fill="#FBFBFC"/>
<path d="M31.9943 31.0972C31.9742 31.0715 31.9615 31.0425 31.9573 31.0103C31.97 31.0393 31.9816 31.0682 31.9943 31.0972Z" fill="#FBFBFC"/>
<path d="M28.1418 31.0125C28.1376 31.0436 28.1259 31.0715 28.1069 31.0951C28.09 31.0576 28.1016 31.0296 28.1418 31.0125Z" fill="#FBFBFC"/>
<path d="M29.3009 20.2C29.2927 20.2253 29.2772 20.2454 29.2556 20.2603L29.2587 20.2157L29.3009 20.2Z" fill="#FBFBFC"/>
<path d="M33.5759 34.9551C33.5621 34.9293 33.5664 34.9068 33.5865 34.8875C33.5939 34.9122 33.5896 34.9347 33.5759 34.9551Z" fill="#FBFBFC"/>
<path d="M23.0525 40.2377C23.1157 40.3763 23.0119 40.3505 22.938 40.3526C22.9209 40.2592 22.9112 40.1733 23.0525 40.2377Z" fill="#FBFBFC"/>
<path d="M28.5618 29.4971C28.5607 29.5336 28.548 29.5647 28.5269 29.5937C28.5385 29.5615 28.5501 29.5293 28.5618 29.4971Z" fill="#FBFBFC"/>
<path d="M31.4745 29.1686C31.4608 29.131 31.4481 29.0934 31.4343 29.0569C31.4481 29.0945 31.4608 29.1321 31.4745 29.1686Z" fill="#FBFBFC"/>
<path d="M31.1394 27.5489C31.1214 27.5178 31.1129 27.4845 31.1151 27.448C31.1288 27.4695 31.1457 27.4899 31.1563 27.5135C31.1595 27.521 31.1457 27.5371 31.1394 27.5489Z" fill="#FBFBFC"/>
<path d="M31.0409 26.909C31.0324 26.8693 31.0229 26.8295 31.0144 26.7898C31.0292 26.8156 31.0472 26.8403 31.0578 26.8671C31.062 26.8779 31.0472 26.895 31.0409 26.909Z" fill="#FBFBFC"/>
<path d="M30.924 26.0443C30.9176 26.0089 30.9124 25.9734 30.906 25.938C30.9187 25.9616 30.9346 25.9842 30.9441 26.0089C30.9473 26.0175 30.9314 26.0325 30.924 26.0443Z" fill="#FBFBFC"/>
<path d="M30.8441 20.2611C30.8204 20.2463 30.8039 20.2262 30.7947 20.1987L30.8379 20.2146L30.8431 20.2611H30.8441Z" fill="#FBFBFC"/>
</g>
</svg>
