<svg width="185" height="82" viewBox="0 0 185 82" fill="none" xmlns="http://www.w3.org/2000/svg">
<mask id="mask0_2169_890" style="mask-type:luminance" maskUnits="userSpaceOnUse" x="0" y="26" width="185" height="30">
<path d="M185 26H0V55.4251H185V26Z" fill="white"/>
</mask>
<g mask="url(#mask0_2169_890)">
<path d="M53.0348 42.2165C55.0267 38.8876 56.8717 35.786 58.7433 32.6978C59.3984 31.6149 62.5401 30.8528 63.5562 31.4946C63.9572 31.7486 63.9572 32.163 63.9572 32.5507C63.9572 38.2459 63.9572 43.9411 63.9572 49.6363C63.9572 50.3716 63.7834 50.7325 62.9546 50.7192C58.4626 50.6523 59.131 51.2272 59.0909 47.3368C59.0775 45.425 59.0909 43.4999 58.6096 41.4812C57.5134 43.3395 56.4305 45.1844 55.3342 47.0293C53.8904 49.4625 52.1791 49.516 50.6952 47.1764C49.639 45.5053 48.5695 43.8341 47.0455 42.2165C47.0455 44.4224 46.9652 46.6416 47.0722 48.8475C47.1524 50.3315 46.6845 50.7994 45.1604 50.7459C41.9251 50.6389 41.9118 50.7325 41.9118 47.4839C41.9118 42.7245 41.9519 37.9785 41.885 33.2192C41.8717 31.909 42.1123 31.4678 43.6096 31.3609C45.9225 31.1871 47.1257 32.0828 48.1417 34.048C49.5588 36.7619 51.2701 39.3288 53.0214 42.2299L53.0348 42.2165Z" fill="white"/>
<path d="M139.024 40.3583C141.578 36.7219 144.813 34.7032 149.559 36.1203C148.035 37.7379 146.631 39.4091 145.04 40.8797C144.011 41.8289 144.011 42.4973 144.88 43.5401C146.698 45.7326 148.409 48.0321 150.481 50.6925C148.155 50.6925 146.324 50.7059 144.492 50.6925C143.837 50.6925 143.436 50.1577 143.061 49.6898C142.513 49.008 142.019 48.2994 141.457 47.631C140.922 47.0027 140.428 45.7994 139.559 46.2005C138.703 46.5882 138.249 47.7914 138.476 48.8342C138.877 50.7059 137.874 50.7593 136.471 50.746C133.168 50.6925 133.168 50.746 133.168 47.4973C133.168 42.3369 133.209 37.1898 133.142 32.0294C133.128 30.6658 133.529 30.3449 134.88 30.4519C138.556 30.746 138.556 30.6791 138.569 34.4091C138.569 36.2807 138.596 38.1524 138.61 40.024C138.61 40.0642 138.69 40.1043 139.011 40.385L139.024 40.3583Z" fill="white"/>
<path d="M114.599 43.3396C114.599 45.3449 114.545 47.3636 114.626 49.369C114.666 50.2915 114.465 50.8663 113.463 50.6925C112.099 50.4519 110.575 51.3877 109.358 50.0107C108.957 49.5562 108.516 50.1578 108.115 50.3182C103.182 52.3636 99.131 49.7968 98.9706 44.4893C98.9038 42.0829 98.9171 39.6765 98.8235 37.2701C98.7834 36.1203 99.2246 35.7995 100.348 35.7727C104.225 35.6925 104.225 35.639 104.225 39.4492C104.225 40.853 104.198 42.2701 104.278 43.6604C104.358 45.0374 104.813 46.2407 106.457 46.2674C108.168 46.3075 109.064 45.2513 109.158 43.6471C109.278 41.5749 109.318 39.4893 109.225 37.4171C109.158 36.0535 109.652 35.7326 110.949 35.746C114.586 35.7727 114.572 35.7059 114.572 39.3022C114.572 40.639 114.572 41.9759 114.572 43.3262C114.586 43.3262 114.599 43.3262 114.612 43.3262L114.599 43.3396Z" fill="white"/>
<path d="M116.283 43.1925C116.31 39.8102 118.302 37.1097 121.631 35.9599C124.8 34.8637 129.238 35.9332 131.096 38.1658C131.979 39.2353 131.805 39.9439 130.575 40.4653C129.144 41.0802 127.861 42.0963 126.283 40.4385C125.16 39.2621 123.663 39.6631 122.567 40.8931C121.377 42.23 121.404 44.4225 122.66 45.6524C123.85 46.8289 125.201 47.0294 126.631 46.0134C127.193 45.6123 127.473 44.6097 128.396 44.984C129.439 45.4118 130.481 45.9065 131.39 46.5482C132.046 47.0161 131.511 47.6177 131.203 48.1257C129.853 50.345 127.58 50.7327 125.308 51.0134C120.588 51.6016 116.243 47.8182 116.283 43.2193V43.1925Z" fill="white"/>
<path d="M74.853 50.9198C68.3958 50.9466 64.4787 45.6658 66.6578 40.2781C68.8102 34.9706 77.2327 33.7407 80.8289 38.1926C81.6311 39.1819 81.7915 39.7701 80.4011 40.4252C78.8503 41.1738 77.6337 42.1364 75.9894 40.3316C74.8931 39.1418 73.3557 39.7166 72.3129 40.9466C71.1364 42.3369 71.1364 44.3289 72.2594 45.5455C73.4225 46.8022 74.9599 46.9091 76.4305 45.9733C77.0054 45.6123 77.1926 44.476 78.1017 44.8637C79.1979 45.3182 80.2942 45.8931 81.2434 46.6016C81.8984 47.0829 81.2968 47.7113 80.9492 48.1658C79.3316 50.2648 77.1124 50.9733 74.853 50.8931V50.9198Z" fill="white"/>
<path d="M83.1283 41.0669C83.1283 38.3797 83.155 35.7059 83.1283 33.0188C83.1149 31.8423 83.4892 31.4011 84.7727 31.4011C88.7299 31.4279 88.7299 31.3744 88.7299 35.2648C88.7299 38.4198 88.7834 41.5616 88.7031 44.7166C88.6764 45.9867 89.1176 46.3343 90.3208 46.2942C92.3261 46.214 94.3448 46.2942 96.3502 46.2541C97.4197 46.2273 97.9277 46.4947 97.8876 47.7247C97.7807 50.6926 97.8342 50.7059 94.8128 50.7059C91.4571 50.7059 88.1015 50.6658 84.7593 50.7327C83.516 50.7594 83.1149 50.3182 83.1416 49.115C83.2085 46.4412 83.155 43.7541 83.155 41.0669H83.1283Z" fill="white"/>
<path d="M8.60972 39.0748C8.8771 39.0347 9.14448 39.0079 9.41186 38.9678L9.6124 38.9946L9.79956 38.9277C10.0937 38.8609 10.3878 38.8074 10.6819 38.7405C12.0188 38.7272 13.3557 38.7138 14.6792 38.7004C14.3718 39.8101 13.7167 40.7058 13.0616 41.6416C10.3878 45.3849 7.62042 49.048 4.47871 52.417C3.47603 51.6282 3.52951 50.425 3.2755 49.1951C2.01881 50.1042 1.96534 51.6149 1.21667 52.8716C1.00277 52.4036 0.882449 52.0561 0.695284 51.7352C-0.106855 50.3849 -0.641615 49.1951 1.63111 48.7138C2.40651 48.5534 2.87443 47.9117 1.97871 47.1095C1.04288 46.2673 1.35036 45.1443 1.44395 44.0881C1.81828 43.4732 2.19261 42.8448 2.56694 42.2299C2.84769 41.9625 3.12844 41.7085 3.40919 41.4411C4.23806 40.9197 5.06694 40.3983 5.89582 39.8769C6.52416 39.6897 7.1525 39.5159 7.76748 39.3288C8.08833 39.3823 8.38245 39.302 8.59635 39.048L8.60972 39.0748Z" fill="#A6DD18"/>
<path d="M30.3342 29.7701C31.6176 29.7567 32.8609 29.8637 33.9973 30.5856C36.1497 31.9626 36.2433 34.115 34.1577 35.6391C32.5935 36.7754 30.7352 37.0963 28.8903 37.4038C27.901 37.5642 26.9117 37.7246 25.9224 37.8851C23.5962 37.5776 21.2299 38.1123 18.9304 37.4171C19.6122 34.3958 20.6417 33.0856 22.6604 33.0455C25.6951 32.992 28.0347 31.4813 30.3208 29.7701H30.3342Z" fill="#C62266"/>
<path d="M27.9012 38.5536C29.8932 38.8343 31.8317 39.222 33.476 40.5054C36.6311 42.952 36.3771 46.2541 32.8477 48.099C32.206 48.4333 31.5375 48.7675 30.7755 48.7407C30.8825 47.9252 31.8584 48.0723 32.1793 47.4974C30.7755 46.0536 29.3584 44.6766 27.4333 44.0215C26.7514 43.7942 26.083 43.6071 25.4279 43.2327C22.9413 41.829 20.4814 40.3183 17.5803 39.8236C17.9948 39.1819 18.6899 39.1685 19.3317 39.0215C22.1659 38.3798 25.0402 38.5135 27.9145 38.5402L27.9012 38.5536Z" fill="#F12038"/>
<path d="M17.5668 39.8369C20.4679 40.3182 22.9278 41.8423 25.4144 43.246C26.0829 43.6203 26.738 43.7941 27.4198 44.0348C29.3583 44.6899 30.762 46.0669 32.1658 47.5107C31.8449 48.0856 30.8556 47.9385 30.762 48.754C29.5722 49.6497 27.6471 48.7006 26.738 50.3316C25.5882 49.9038 24.746 49.1551 23.9439 48.2059C21.8048 45.6925 19.7594 43.0588 17.0455 41.0802C16.9519 41.0535 16.8717 41.0401 16.7781 41.0268C16.8583 40.5187 17.0722 40.0909 17.5668 39.8503V39.8369Z" fill="#F83423"/>
<path d="M30.3342 29.7701C28.0481 31.4813 25.6952 32.9787 22.6738 33.0455C20.6551 33.0856 19.6257 34.3824 18.9439 37.4172C17.3931 37.6177 17.1792 36.7086 17.6337 35.5856C18.3155 33.9145 19.1578 32.3102 19.9198 30.6926C21.0294 29.5562 21.9385 28.2193 23.262 27.2968C26.5374 24.984 29.0508 25.8664 30.3476 29.7968L30.3342 29.7701Z" fill="#76479B"/>
<path d="M16.7781 41.0134C16.8717 41.0268 16.9519 41.0535 17.0455 41.0669C17.8343 44.9439 20.107 48.1658 21.7781 51.6551C22.2995 52.7514 23.0482 53.8878 24.5589 53.9011C21.4573 56.722 17.6739 55.5054 15.7888 51.107C15.6551 50.4386 15.5348 49.7567 15.4011 49.0883C15.4011 48.1525 15.4011 47.2166 15.4011 46.2808C15.8289 44.5161 15.9894 42.6846 16.7781 41.0134Z" fill="#F46D05"/>
<path d="M5 35.7726C5.28075 33.3395 6.69786 31.7753 8.86364 30.8528C10.0936 30.3315 11.2968 29.7967 12.139 28.7004C13.1417 31.3341 13.3021 34.2619 14.9599 36.655C14.9599 36.7486 14.9599 36.8421 14.9599 36.9357C13.5561 37.4705 12.0588 37.2967 10.615 37.4839C9.55882 37.417 8.4893 37.3502 7.43315 37.2833C6.5508 36.8823 5.64171 36.548 5.01337 35.7593L5 35.7726Z" fill="#2FDA38"/>
<path d="M4.46533 52.4304C7.60704 49.0615 10.3744 45.3984 13.0482 41.655C13.7167 40.7192 14.3584 39.8235 14.6659 38.7139C15.7755 38.9812 15.3477 39.8636 15.2942 40.5053C15.1471 42.631 14.4252 44.6363 13.8905 46.6818C13.7969 46.7754 13.7568 46.8957 13.7835 47.0294C13.4226 47.7246 13.0616 48.4331 12.7006 49.1283C11.9921 49.9705 11.2701 50.8262 10.5616 51.6684C10.2942 51.8823 10.0135 52.0962 9.74608 52.3101C9.22469 52.5775 8.68993 52.8449 8.16854 53.1256C7.87442 53.1925 7.59367 53.2593 7.29956 53.3262C6.92523 53.4064 6.53752 53.4866 6.16319 53.5668C5.76212 53.4331 5.36105 53.2861 4.95998 53.1524C4.79956 52.9251 4.62576 52.6845 4.46533 52.4572V52.4304Z" fill="#E2CC19"/>
<path d="M172.848 46.9627C172.848 46.3611 172.848 45.7595 172.848 45.1579C172.821 43.8878 173.235 43.8611 174.586 43.5269C176.952 42.952 179.118 44.7301 181.444 43.3932C182.594 42.7381 184.131 43.3932 184.679 44.9172C185.281 46.5883 184.88 48.3531 184.906 50.0777C184.906 50.5723 184.492 50.7194 184.051 50.6659C183.583 50.6124 183.356 50.3049 183.342 49.8504C183.329 48.7809 183.342 47.7113 183.329 46.6418C183.329 45.6391 182.808 44.9172 181.858 44.7702C180.842 44.6097 180.321 45.3049 180 46.2274C179.706 47.083 179.88 47.952 179.786 48.8076C179.706 49.5028 180.214 50.6258 178.864 50.599C177.714 50.5589 178.088 49.5696 178.048 48.9012C177.995 48.2327 178.048 47.5643 178.035 46.8958C177.995 45.8263 177.727 44.7568 176.444 44.7568C175.254 44.7568 174.733 45.6926 174.639 46.7889C174.559 47.7247 174.559 48.6605 174.559 49.5964C174.559 50.2113 174.385 50.6392 173.677 50.6525C172.861 50.6793 172.888 50.1044 172.874 49.5696C172.874 48.7006 172.874 47.8317 172.874 46.9627H172.848Z" fill="white"/>
<path d="M24.5588 53.9011C23.0481 53.8877 22.2994 52.7648 21.778 51.6551C20.1069 48.1658 17.8342 44.9439 17.0454 41.0669C19.7593 43.0455 21.8048 45.6792 23.9438 48.1926C24.7459 49.1418 25.5882 49.8904 26.7379 50.3182C26.5508 51.8423 25.8155 53.0321 24.5588 53.9011Z" fill="#F85303"/>
<path d="M167.46 50.7059C165.04 50.7327 163.53 49.3022 163.503 46.9626C163.489 44.73 164.987 43.246 167.273 43.2327C169.586 43.2327 171.324 44.8503 171.31 47.0027C171.297 49.1551 169.733 50.6658 167.46 50.6926V50.7059ZM167.072 49.0883C168.409 49.1551 169.305 48.6337 169.385 47.2166C169.452 45.9599 168.971 44.9038 167.607 44.7701C166.324 44.6364 165.348 45.3316 165.294 46.6952C165.254 47.845 165.535 49.0081 167.072 49.1017V49.0883Z" fill="white"/>
<path d="M162.38 48.9145C161.791 50.6123 160.481 50.9198 159.144 50.7995C157.487 50.6525 156.283 49.73 155.869 48.0188C155.468 46.3744 155.829 44.9573 157.286 43.968C158.476 43.1658 159.799 43.0321 161.11 43.5936C161.685 43.8343 162.594 44.1685 162.326 44.9172C161.992 45.8262 161.203 45.2113 160.615 44.9974C158.904 44.3824 157.62 45.1845 157.554 46.8824C157.5 48.4332 158.623 49.4492 160.134 49.0615C160.842 48.8744 161.497 48.5402 162.38 48.9145Z" fill="white"/>
<path d="M18.4893 29.7432C17.7941 31.6817 17.0722 33.6202 16.4171 35.5721C16.1631 36.3341 15.8289 36.909 14.9465 36.9625C14.9465 36.8689 14.9599 36.7753 14.9465 36.6817C15.8824 33.2994 15.2808 29.8769 15.3075 26.4545C17.861 25.3582 18.7032 26.2405 18.4626 29.7566L18.4893 29.7432Z" fill="#1683D1"/>
<path d="M15.3342 26.4412C15.2941 29.8503 15.909 33.2861 14.9732 36.6684C13.3154 34.262 13.155 31.3476 12.1523 28.7139C12.901 27.524 13.9037 26.6818 15.3475 26.4545L15.3342 26.4412Z" fill="#1C9F9A"/>
<path d="M154.786 49.5828C154.773 50.1844 154.465 50.6657 153.73 50.679C153.021 50.679 152.647 50.2245 152.58 49.5427C152.513 48.8475 152.941 48.5935 153.556 48.5534C154.225 48.5133 154.759 48.6871 154.786 49.5961V49.5828Z" fill="white"/>
</g>
</svg>
