<svg width="185" height="82" viewBox="0 0 185 82" fill="none" xmlns="http://www.w3.org/2000/svg">
<mask id="mask0_2169_916" style="mask-type:luminance" maskUnits="userSpaceOnUse" x="0" y="18" width="185" height="46">
<path d="M185 18H0V63.7732H185V18Z" fill="white"/>
</mask>
<g mask="url(#mask0_2169_916)">
<path d="M13.0708 27.765C10.2735 27.765 7.57801 28.7313 5.54364 30.257V29.3416C5.54364 28.5787 5.08591 28.1718 4.37388 28.1718H1.32234C0.508591 28.1718 0 28.6804 0 29.4942V62.4509C0 63.2646 0.508591 63.7732 1.32234 63.7732H5.28935C6.10309 63.7732 6.61168 63.2646 6.61168 62.4509V52.0247C8.39175 53.2454 10.6804 54.0083 13.0708 54.0083C20.2928 54.0083 26.1924 48.1086 26.1924 40.8866C26.1924 33.6646 20.2928 27.765 13.0708 27.765ZM12.9691 47.2948C9.51065 47.2948 6.56082 44.3959 6.56082 40.8866C6.56082 37.3773 9.51065 34.4784 12.9691 34.4784C16.4275 34.4784 19.3773 37.3773 19.3773 40.8866C19.3773 44.3959 16.4275 47.2948 12.9691 47.2948ZM41.5321 54.0083C35.4289 54.0083 30.4956 49.0749 30.4956 42.9718V29.4942C30.4956 28.6804 31.0042 28.1718 31.818 28.1718H35.785C36.5987 28.1718 37.1073 28.6804 37.1073 29.4942V42.9718C37.1073 45.3622 39.0908 47.3966 41.5321 47.3966C43.9224 47.3966 45.9059 45.3622 45.9059 42.9718V29.4942C45.9059 28.6804 46.4145 28.1718 47.2283 28.1718H51.1953C52.0599 28.1718 52.5685 28.6804 52.5685 29.4942V42.9718C52.5685 49.0749 47.5843 54.0083 41.5321 54.0083ZM66.8314 46.9388H66.272C64.797 46.9388 63.7799 45.9217 63.7799 44.1924V19.3223C63.7799 18.5086 63.2711 18 62.4574 18H58.4395C57.6258 18 57.1172 18.5086 57.1172 19.3223V44.0907C57.1172 50.7533 59.9144 53.6014 66.1194 53.6014H66.5771C67.3909 53.6014 67.8995 53.0928 67.8995 52.279V48.2612C67.8995 47.3966 67.5943 46.9388 66.8314 46.9388ZM86.9239 31.2742L85.4999 33.7155C85.093 34.4784 84.381 34.6309 83.669 34.2241C82.55 33.7155 81.3803 33.2069 80.2614 33.2069C78.8882 33.2069 77.871 33.868 77.871 34.8852C77.871 36.055 79.2442 36.5127 81.7363 37.479C85.7033 38.9031 89.1617 41.5986 89.1617 45.8708C89.1617 50.1938 85.5507 54.0083 79.8545 54.0083C76.8538 54.0083 74.1583 52.9402 72.1748 51.8213C71.4628 51.4144 71.3102 50.8041 71.6662 50.0412L73.0903 47.0914C73.4463 46.3285 74.0566 46.1759 74.8703 46.4811C76.3452 47.1931 78.3287 47.8543 79.8037 47.8543C81.5329 47.8543 82.3466 46.888 82.3466 45.9217C82.3466 44.701 81.0751 43.989 77.9727 42.7175C75.8367 41.8529 71.3611 40.022 71.3611 35.1395C71.3611 30.6639 75.1246 27.765 80.0071 27.765C82.2958 27.765 84.3301 28.3753 86.4153 29.4433C87.1782 29.8502 87.3308 30.5113 86.9239 31.2742ZM112.045 46.9897H101.009L112.198 34.8344C112.706 34.3766 112.859 33.868 112.859 33.2069V29.4942C112.859 28.6804 112.35 28.1718 111.537 28.1718H93.6342C92.8204 28.1718 92.3627 28.6296 92.3627 29.4433V32.8509C92.3627 33.6646 92.8204 34.1223 93.6342 34.1223H104.874L93.2273 46.3285C92.7187 46.7863 92.5153 47.2948 92.5153 47.956V52.279C92.5153 53.0928 93.0239 53.6014 93.8376 53.6014H112.045C112.91 53.6014 113.367 53.0928 113.367 52.279V48.312C113.367 47.4983 112.91 46.9897 112.045 46.9897ZM134.947 53.8455C130.614 53.8455 127.074 50.3362 127.074 45.9725C127.074 41.6088 130.614 38.0995 134.947 38.0995C136.931 38.0995 138.7 38.8319 140.074 39.9915C140.348 40.2051 140.348 40.4797 140.165 40.7544L139.555 41.5783C139.341 41.8834 139.067 41.914 138.792 41.6698C137.571 40.6628 136.198 40.2356 134.947 40.2356C131.804 40.2356 129.21 42.8294 129.21 45.9725C129.21 49.1156 131.804 51.7094 134.947 51.7094C136.198 51.7094 137.571 51.2822 138.792 50.2752C139.067 50.0311 139.341 50.0616 139.555 50.3362L140.165 51.1601C140.348 51.4348 140.348 51.7094 140.074 51.923C138.7 53.0826 136.931 53.8455 134.947 53.8455ZM150.5 38.0995C146.167 38.0995 142.627 41.6393 142.627 45.9725C142.627 50.3057 146.167 53.8455 150.5 53.8455C154.833 53.8455 158.373 50.3057 158.373 45.9725C158.373 41.6393 154.833 38.0995 150.5 38.0995ZM150.5 40.2661C153.673 40.2661 156.206 42.7989 156.206 45.9725C156.206 49.1461 153.673 51.7094 150.5 51.7094C147.326 51.7094 144.763 49.1461 144.763 45.9725C144.763 42.7989 147.326 40.2661 150.5 40.2661ZM178.557 38.0995C176.329 38.0995 174.376 39.2286 173.247 40.9375C172.118 39.2286 170.196 38.0995 167.968 38.0995C165.954 38.0995 164.337 39.015 163.513 40.1746V38.8929C163.513 38.5573 163.299 38.3436 162.963 38.3436H162.139C161.804 38.3436 161.59 38.5573 161.59 38.8929V53.0521C161.59 53.3878 161.804 53.6014 162.139 53.6014H163.177C163.513 53.6014 163.726 53.3878 163.726 53.0521V44.4467C163.726 42.1276 165.618 40.2051 167.968 40.2051C170.318 40.2051 172.21 42.1276 172.21 44.4467V53.0521C172.21 53.3878 172.423 53.6014 172.759 53.6014H173.766C174.102 53.6014 174.315 53.3878 174.315 53.0521V44.4467C174.315 42.1276 176.207 40.2051 178.557 40.2051C180.876 40.2051 182.768 42.1276 182.768 44.4467V53.0521C182.768 53.3878 182.982 53.6014 183.317 53.6014H184.355C184.69 53.6014 184.904 53.3878 184.904 53.0521V44.4467C184.904 40.9375 182.036 38.0995 178.557 38.0995Z" fill="white"/>
<path d="M123.822 50.0413C123.822 51.974 122.194 53.6015 120.211 53.6015C118.278 53.6015 116.65 51.974 116.65 50.0413C116.65 48.0578 118.278 46.4812 120.211 46.4812C122.194 46.4812 123.822 48.0578 123.822 50.0413Z" fill="url(#paint0_linear_2169_916)"/>
</g>
<defs>
<linearGradient id="paint0_linear_2169_916" x1="-2.54291" y1="58.6874" x2="186.883" y2="58.7778" gradientUnits="userSpaceOnUse">
<stop stop-color="#C71CB8"/>
<stop offset="1" stop-color="#FE139C"/>
</linearGradient>
</defs>
</svg>
