<svg xmlns="http://www.w3.org/2000/svg" width="30" height="30" xmlns:v="https://vecta.io/nano"><path d="M14.822 7a.27.27 0 0 0-.064.007l-6.534 1.5c-.13.03-.224.152-.224.293 0 4.966.494 8.16 1.594 10.403s2.81 3.496 5.1 4.558a.27.27 0 0 0 .228 0c2.3-1.06 4-2.314 5.1-4.558s1.594-5.436 1.594-10.403c0-.14-.093-.263-.224-.293l-6.534-1.5A.27.27 0 0 0 14.822 7h0zm3.664 3.97c.777-.024 1.177.972.62 1.544l-4.82 5.086a.82.82 0 0 1-1.205 0l-2.2-2.33c-.837-.847.402-2.154 1.205-1.27l1.607 1.695 4.22-4.45c.154-.168.365-.265.586-.272z" fill="#23b059" fill-rule="evenodd"/></svg>